<?xml version="1.0" encoding="UTF-8"?>
<svg version="1.1" viewBox="0 0 1600 1600" width="100" height="100" xmlns="http://www.w3.org/2000/svg">
<path transform="translate(1058,528)" d="m0 0h201c5.62 9 5.62 9 7.91 13.3 0.509 0.944 1.02 1.89 1.54 2.86 0.531 0.992 1.06 1.98 1.61 3.01 1.15 2.14 2.31 4.28 3.46 6.42 0.58 1.08 1.16 2.15 1.76 3.26 2.62 4.86 5.26 9.71 7.91 14.6 0.496 0.91 0.993 1.82 1.5 2.76 3.45 6.32 6.94 12.6 10.4 18.9 4.08 7.33 8.06 14.7 12 22.1 3.62 6.7 7.29 13.4 11 20 3.51 6.3 6.95 12.6 10.4 19 3.93 7.29 7.91 14.5 12 21.7 3.29 5.82 6.46 11.7 9.63 17.6 4.69 8.68 9.43 17.3 14.2 25.9 0.85 1.52 0.85 1.52 1.72 3.08 3.51 6.25 7.12 12.4 10.8 18.5 1.61-3.22 1.13-6.72 1.12-10.3 8.54e-4 -0.863 0.00171-1.73 0.00259-2.62 0.00165-2.91-0.00387-5.82-0.00932-8.73-2.82e-4 -2.08-1.24e-4 -4.16 4.43e-4 -6.24 2.88e-4 -5.66-0.00561-11.3-0.0126-17-0.00624-5.91-0.00684-11.8-0.00803-17.7-0.00311-11.2-0.0113-22.4-0.0213-33.6-0.0132-15.1-0.0187-30.2-0.0245-45.4-0.00941-23.8-0.0293-47.7-0.0475-71.5h180v485c-3.09 1.55-6.36 1.16-9.76 1.17-0.811 0.0065-1.62 0.013-2.46 0.0197-2.73 0.0205-5.46 0.0336-8.2 0.0467-1.95 0.0128-3.91 0.0259-5.86 0.0394-17.8 0.116-35.6 0.173-53.5 0.217-13.2 0.0333-26.4 0.0929-39.5 0.188-9.26 0.0642-18.5 0.098-27.8 0.109-5.54 0.00757-11.1 0.0289-16.6 0.083-5.21 0.0503-10.4 0.0631-15.6 0.0467-1.91 6.05e-4 -3.82 0.0149-5.74 0.0439-14.5 0.208-14.5 0.208-18.2-2.71-1.33-2.09-2.09-3.89-2.79-6.25-0.518-0.912-1.04-1.82-1.57-2.76-0.663-1.24-0.663-1.24-1.34-2.5-0.509-0.944-1.02-1.89-1.54-2.86-0.532-0.992-1.06-1.98-1.61-3.01-1.16-2.15-2.31-4.29-3.47-6.44-0.58-1.08-1.16-2.16-1.76-3.27-2.58-4.77-5.17-9.54-7.77-14.3-0.994-1.82-1.99-3.64-2.98-5.46-0.489-0.895-0.978-1.79-1.48-2.71-1.47-2.7-2.94-5.39-4.4-8.09-5.85-10.8-11.8-21.5-17.8-32.1-4.59-8.19-9.07-16.4-13.5-24.7-3.63-6.73-7.38-13.4-11.2-20-3.55-6.15-6.93-12.3-10-18.7-2.31-4.59-4.84-9.06-7.36-13.5-3.67-6.57-7.28-13.2-10.9-19.8-0.555-1.02-1.11-2.05-1.68-3.1-2.33-4.31-4.66-8.63-6.94-13-0.325-0.616-0.65-1.23-0.986-1.87-0.816-1.55-1.62-3.1-2.43-4.65-1.1-2.23-1.1-2.23-3.27-3.1 0.00138 1.65 0.00138 1.65 0.00279 3.32 0.0222 26.6 0.0386 53.3 0.049 79.9 0.00516 12.9 0.0122 25.8 0.0236 38.7 0.00994 11.2 0.0164 22.5 0.0186 33.7 0.00131 5.95 0.0044 11.9 0.0116 17.8 0.00676 5.59 0.00889 11.2 0.00738 16.8 2.76e-4 2.06 0.00228 4.12 0.0061 6.18 0.00493 2.8 0.00379 5.6 0.00105 8.39 0.00437 1.24 0.00437 1.24 0.00883 2.5-0.015 5.59-0.015 5.59-1.13 6.7h-179v-486z"/>
<path transform="translate(529,528)" d="m0 0h180c0.0807 72.3 0.0807 72.3 0.0977 103 0.00392 6.92 0.00796 13.8 0.0122 20.8 5.27e-4 0.868 0.00105 1.74 0.0016 2.63 0.00868 14 0.0244 28 0.0428 41.9 0.0188 14.4 0.0298 28.7 0.0339 43.1 0.00273 8.85 0.0113 17.7 0.0277 26.5 0.0106 6.08 0.0138 12.2 0.0112 18.2-0.00127 3.5 5.6e-4 7 0.0114 10.5 0.0389 14.7-0.256 29.2-2.24 43.8-0.16 1.23-0.32 2.47-0.484 3.74-3.74 28.3-11 55.5-23.5 81.3-0.407 0.841-0.815 1.68-1.23 2.55-8.81 18-19.6 33.4-32.8 48.5-0.897 1.12-1.79 2.24-2.69 3.36-0.762 0.87-1.52 1.74-2.31 2.64h-2c-0.201 0.544-0.402 1.09-0.609 1.65-1.96 3.31-4.72 5.53-7.64 7.98-0.626 0.528-1.25 1.06-1.9 1.6-17.7 14.8-37.1 26-58.9 33.8-1.14 0.409-2.27 0.817-3.45 1.24-53.2 17.6-117 8.45-167-16-8.99-4.53-17.5-9.89-26-15.2 0.561-7.38 2.76-13.9 5.12-20.9 0.431-1.29 0.861-2.58 1.29-3.88 1.16-3.49 2.33-6.98 3.51-10.5 1.23-3.66 2.45-7.32 3.67-11 2.31-6.93 4.64-13.9 6.96-20.8 2.64-7.86 5.27-15.7 7.9-23.6 4.5-13.4 9-26.9 13.5-40.3 0.372-1.11 0.743-2.21 1.13-3.36 0.321-0.957 0.643-1.91 0.974-2.9 0.98-2.92 1.96-5.85 2.93-8.78 4.33 0.677 8.17 2.19 12.2 3.88 18.2 7.39 38.9 11.9 57.8 4.12 15.9-7.14 24.1-18 30.9-33.6 2.82-9.01 3.37-18.1 3.36-27.5 0.00869-1.73 0.00869-1.73 0.0176-3.5 0.0169-3.83 0.0199-7.66 0.0228-11.5 0.00821-2.76 0.0194-5.52 0.0304-8.28 0.0222-5.93 0.0373-11.9 0.0474-17.8 0.0146-8.57 0.0402-17.1 0.0683-25.7 0.0454-13.9 0.082-27.8 0.113-41.7 0.0302-13.5 0.0646-27 0.104-40.5 0.00248-0.842 0.00496-1.68 0.00752-2.55 0.0194-6.58 0.0391-13.2 0.0589-19.7 0.0966-32.2 0.172-64.4 0.251-96.7z"/>
<path transform="translate(153,528)" d="m0 0h180c0.0807 71.6 0.0807 71.6 0.0977 102 0.00392 6.87 0.00796 13.7 0.0122 20.6 5.27e-4 0.861 0.00105 1.72 0.0016 2.61 0.00867 13.8 0.0244 27.7 0.0428 41.5 0.0188 14.2 0.0298 28.5 0.0339 42.7 0.00273 8.77 0.0113 17.5 0.0277 26.3 0.0107 6.03 0.0137 12.1 0.0112 18.1-0.00127 3.47 5.15e-4 6.94 0.0114 10.4 0.0536 20-0.482 40.1-3.93 59.9-0.168 0.973-0.336 1.95-0.509 2.95-7.96 43.9-25.4 86.8-56.3 120-2.55 2.67-2.55 2.67-4.49 5.78h-2c-0.251 0.585-0.503 1.17-0.762 1.77-7.52 13.5-28.1 23.7-41.2 31.2-0.653 0.374-1.31 0.748-1.98 1.13-46.3 26-104 25.2-154 11.5-20.4-5.82-39.7-13.8-57.8-24.9-0.676-0.412-1.35-0.825-2.05-1.25-6.55-4.14-6.55-4.14-8.14-7.5 0.424-3.11 1.53-5.95 2.61-8.88 0.313-0.898 0.626-1.8 0.948-2.72 0.685-1.96 1.38-3.92 2.08-5.87 1.13-3.14 2.23-6.28 3.33-9.43 1.16-3.31 2.31-6.63 3.48-9.94 3.8-10.8 7.45-21.7 11.1-32.6 1.05-3.17 2.11-6.34 3.16-9.51 1.4-4.21 2.81-8.42 4.21-12.6 2.17-6.54 4.35-13.1 6.53-19.6 3.53-10.6 7.06-21.2 10.6-31.8 3.79 0.705 6.97 1.75 10.5 3.31 18.7 7.9 39.9 12.4 59.5 4.69 16.2-7.88 24.3-17.6 30.9-34.3 2.69-9.13 3.37-18.2 3.36-27.7 0.00869-1.72 0.00869-1.72 0.0176-3.48 0.0169-3.82 0.0199-7.64 0.0228-11.5 0.00821-2.75 0.0194-5.5 0.0304-8.25 0.0222-5.9 0.0373-11.8 0.0474-17.7 0.0146-8.54 0.0402-17.1 0.0683-25.6 0.0454-13.9 0.082-27.7 0.113-41.6 0.0302-13.5 0.0646-26.9 0.104-40.4 0.00248-0.839 0.00496-1.68 0.00752-2.54 0.0194-6.56 0.0391-13.1 0.0589-19.7 0.0966-32.1 0.172-64.2 0.251-96.3z"/>
<path transform="translate(793,528)" d="m0 0h180c0.0331 92.9 0.0331 92.9 0.0423 139 2.07e-4 1.03 2.07e-4 1.03 4.18e-4 2.07 0.00299 14.9 0.00576 29.7 0.0083 44.6 0.00125 7.28 0.00254 14.6 0.00387 21.9 1.31e-4 0.725 2.62e-4 1.45 3.96e-4 2.2 0.00427 23.5 0.0118 47 0.021 70.5 0.00942 24.2 0.0156 48.3 0.0176 72.5 2.88e-4 3.41 6.14e-4 6.82 9.62e-4 10.2 1.01e-4 1.01 1.01e-4 1.01 2.04e-4 2.03 0.00118 10.8 0.00583 21.6 0.0118 32.5 0.00587 10.9 0.00806 21.7 0.00667 32.6-6.44e-4 5.89 3.78e-4 11.8 0.0057 17.7 0.00483 5.38 0.00513 10.8 0.00169 16.2-4.26e-4 1.96 8.71e-4 3.91 0.00398 5.87 0.00396 2.64 0.00188 5.28-0.00184 7.93 0.00394 1.16 0.00394 1.16 0.00796 2.35-0.0169 5.23-0.0169 5.23-1.13 6.35h-179v-486z"/>
</svg>
