<?xml version="1.0" encoding="UTF-8"?>
<svg version="1.1" viewBox="0 0 1300 1300" width="75" height="75" xmlns="http://www.w3.org/2000/svg">
<path fill="current" transform="translate(990,435)" d="m0 0h275c-4.8 28.3-9.6 56.5-14.7 84.7-3.9 21.5-7.64 43.1-11.4 64.6-1.48 8.48-2.97 17-4.45 25.4-0.185 1.06-0.37 2.11-0.56 3.2-3.91 22.4-7.85 44.7-11.8 67.1-0.157 0.888-0.314 1.78-0.475 2.69-0.315 1.78-0.63 3.57-0.946 5.35-0.765 4.33-1.53 8.66-2.29 13-0.147 0.832-0.294 1.66-0.445 2.52-1.85 10.5-3.7 21-5.53 31.5-0.2 1.15-0.401 2.29-0.607 3.47-0.394 2.26-0.789 4.51-1.18 6.77-0.287 1.64-0.287 1.64-0.581 3.32-0.19 1.09-0.38 2.17-0.576 3.29-2.64 15.1-5.32 30.2-8.02 45.3-0.158 0.883-0.316 1.77-0.479 2.68-0.813 4.54-1.63 9.08-2.44 13.6-0.163 0.91-0.326 1.82-0.494 2.76-0.329 1.84-0.659 3.68-0.988 5.52-4.32 24.1-8.58 48.2-12.7 72.4-3.52 20.6-7.14 41.1-10.8 61.6-0.43 2.41-0.86 4.83-1.29 7.24-0.679 3.81-1.36 7.63-2.04 11.4-0.25 1.4-0.499 2.8-0.748 4.19-1.75 9.83-3.58 19.6-5.42 29.4h-114c1.26-8.18 2.55-16.3 4.03-24.4 0.397-2.2 0.795-4.41 1.19-6.61 0.312-1.72 0.312-1.72 0.629-3.48 3.87-21.4 7.6-42.9 11.2-64.3 3-17.9 6.08-35.7 9.31-53.5 3.57-19.6 7.03-39.3 10.4-58.9 0.191-1.1 0.191-1.1 0.386-2.23 1.56-8.99 3.12-18 4.68-27 2.07-11.9 4.14-23.9 6.21-35.8 0.349-2.01 0.697-4.01 1.05-6.02 3.58-20.6 7.19-41.2 10.8-61.8 0.472-2.7 0.944-5.39 1.42-8.09 0.595-3.4 1.19-6.8 1.79-10.2 0.178-1.01 0.178-1.01 0.359-2.05 1.42-8.11 2.84-16.2 4.27-24.3 1.01-5.78 2.03-11.6 3.04-17.3 0.418-2.39 0.837-4.77 1.26-7.16 2.73-15.5 5.37-31.1 7.95-46.7-15.2 0.33-30.4 0.66-46 1-9.82 55.4-19.5 111-29.2 166-2.43 13.9-4.86 27.8-7.3 41.7-6.25 35.7-12.5 71.4-18.6 107-4.08 23.7-8.2 47.3-12.4 71-2.05 11.6-4.08 23.3-6.07 34.9-0.421 2.46-0.843 4.91-1.26 7.37-0.798 4.65-1.59 9.3-2.38 13.9-0.354 2.07-0.709 4.13-1.06 6.2-0.16 0.951-0.32 1.9-0.485 2.88-0.148 0.859-0.297 1.72-0.449 2.6-0.128 0.75-0.255 1.5-0.386 2.27-0.395 1.71-0.395 1.71-1.39 2.71-1.49 0.0957-2.99 0.122-4.49 0.12-0.969 0.00137-1.94 0.00275-2.94 0.00417-1.07-0.0036-2.14-0.00719-3.25-0.0109-1.68 2.19e-4 -1.68 2.19e-4 -3.4 4.43e-4 -3.73-7e-4 -7.46-0.00849-11.2-0.0163-2.58-0.00186-5.15-0.00329-7.73-0.00429-6.1-0.00344-12.2-0.0113-18.3-0.0213-6.95-0.0112-13.9-0.0167-20.8-0.0217-14.3-0.0105-28.6-0.0281-42.9-0.0503 0.134-0.748 0.268-1.5 0.406-2.27 2.53-14.1 5.06-28.3 7.54-42.4 0.439-2.5 0.878-5 1.32-7.5 0.642-3.65 1.28-7.3 1.92-11 1.76-10 3.52-20.1 5.29-30.1 0.184-1.05 0.368-2.09 0.557-3.17 2.84-16.1 5.68-32.3 8.53-48.4 0.188-1.07 0.377-2.13 0.571-3.23 0.951-5.39 1.9-10.8 2.85-16.2 5.84-33.1 11.7-66.1 17.5-99.2 0.214-1.23 0.214-1.23 0.433-2.48 2.92-16.7 5.84-33.4 8.76-50.2 0.722-4.15 1.44-8.29 2.17-12.4 0.741-4.25 1.48-8.51 2.22-12.8 2.49-14.3 5.05-28.6 7.64-43 4.88-27 9.61-54.1 14.3-81.1 2.96-17 5.92-34.1 8.9-51.1 0.769-4.4 1.54-8.8 2.3-13.2 0.923-5.31 1.85-10.6 2.78-15.9 0.345-1.97 0.687-3.93 1.03-5.9 0.467-2.69 0.94-5.39 1.42-8.08 0.135-0.786 0.269-1.57 0.408-2.38 0.714-4 1.68-7.22 3.21-11z"/>
<path fill="current" transform="translate(467 511)" d="m0 0c1.8-6.76e-4 3.61-0.00165 5.41-0.0029 3.75-0.00146 7.49 6.24e-4 11.2 0.00534 4.76 0.00571 9.53 0.0024 14.3-0.00357 3.71-0.00364 7.42-0.00245 11.1 1.28e-4 1.76 6.59e-4 3.51-1.23e-4 5.27-0.00248 10.2-0.0107 20.2 0.232 30.3 1.14-3.76 22.9-7.68 45.7-11.7 68.5-1.54 8.61-3.07 17.2-4.59 25.8-0.155 0.872-0.31 1.74-0.469 2.64-3.02 17-5.99 34-8.94 51.1-1.1 6.36-2.21 12.7-3.31 19.1-0.121 0.695-0.241 1.39-0.366 2.11-4.06 23.4-8.2 46.7-12.3 70.1-1.59 9.01-3.18 18-4.77 27-1.09 6.21-2.19 12.4-3.28 18.6-0.121 0.685-0.241 1.37-0.366 2.08-3.18 18-6.37 36-9.6 54-0.241 1.35-0.241 1.35-0.487 2.72-0.815 4.56-1.63 9.11-2.45 13.7-0.327 1.83-0.654 3.66-0.982 5.49-0.162 0.907-0.325 1.81-0.492 2.75-3.81 21.3-7.6 42.6-11.3 63.9-3.73 21.7-7.52 43.3-11.3 65-0.919 5.2-1.84 10.4-2.75 15.6-0.862 4.92-1.73 9.84-2.6 14.8-0.325 1.84-0.648 3.68-0.969 5.52-0.443 2.54-0.895 5.08-1.35 7.62-0.128 0.746-0.257 1.49-0.389 2.26-0.661 3.66-1.48 6.26-3.16 9.63h-113c-1-4-0.917-5.53-0.132-9.44 0.223-1.14 0.445-2.28 0.674-3.46 0.385-1.92 0.385-1.92 0.778-3.88 0.572-2.94 1.14-5.88 1.7-8.82 0.156-0.808 0.311-1.62 0.472-2.45 2.13-11.1 4.09-22.3 6.06-33.5 0.422-2.38 0.843-4.76 1.27-7.14 0.888-5.02 1.78-10 2.66-15 1.43-8.08 2.86-16.2 4.29-24.2 0.248-1.4 0.495-2.8 0.743-4.19 0.376-2.12 0.751-4.24 1.13-6.36 0.764-4.31 1.53-8.62 2.29-12.9 5.42-30.6 10.9-61.2 16.3-91.8 1.28-7.19 2.56-14.4 3.83-21.6 1.97-11.1 3.93-22.1 5.9-33.2 2.52-14.2 5.03-28.3 7.55-42.5 0.172-0.965 0.343-1.93 0.52-2.93 1.63-9.19 3.27-18.4 4.9-27.6 0.78-4.39 1.56-8.78 2.34-13.2 0.152-0.857 0.305-1.71 0.461-2.6 2.1-11.8 4.2-23.6 6.31-35.5 1.2-6.77 2.41-13.5 3.61-20.3 0.845-4.75 1.69-9.5 2.54-14.2 3.43-19.2 6.84-38.5 10.2-57.7 0.466-2.67 0.932-5.34 1.4-8 1.31-7.49 2.62-15 3.91-22.5 0.517-2.98 1.04-5.97 1.56-8.95 0.24-1.38 0.478-2.76 0.715-4.13 0.321-1.87 0.647-3.73 0.974-5.59 0.271-1.56 0.271-1.56 0.547-3.15 0.506-2.32 0.506-2.32 1.51-3.32 2.46-0.244 4.89-0.423 7.35-0.554 1.14-0.0632 1.14-0.0632 2.3-0.128 8.89-0.452 17.8-0.463 26.7-0.451z"/>
<path fill="current" transform="translate(611 511)" d="m0 0c1.38 0.00304 1.38 0.00304 2.79 0.00613 1.45-0.00263 1.45-0.00263 2.93-0.00531 3.22-0.00443 6.43-0.00148 9.65 0.00189 2.23-6.73e-4 4.47-0.00164 6.7-0.0029 4.7-0.00148 9.4 6.8e-4 14.1 0.00534 6 0.00566 12 0.00244 18-0.00357 4.62-0.00363 9.25-0.00245 13.9 1.28e-4 2.21 6.64e-4 4.42-1.39e-4 6.63-0.00248 22.2-0.0183 22.2-0.0183 31.9 1.14-1.46 15.6-4.34 30.9-7.1 46.3-0.681 3.8-1.36 7.6-2.03 11.4-1.62 9.09-3.24 18.2-4.87 27.3-0.34 1.9-0.34 1.9-0.687 3.83-0.624 3.48-1.25 6.96-1.87 10.4-0.596 3.33-1.19 6.65-1.79 9.98-0.397 2.22-0.794 4.43-1.19 6.65-3.84 21.4-7.55 42.9-11.3 64.3-4.19 24.3-8.47 48.6-12.8 72.8-3.42 19-6.79 38-10.1 57-2.77 16.1-5.59 32.2-8.5 48.2-3.98 22-7.91 44-11.8 66.1-0.227 1.28-0.227 1.28-0.459 2.59-3.7 20.9-7.38 41.8-11 62.7-1.36 7.88-2.72 15.8-4.09 23.7-0.309 1.79-0.619 3.58-0.927 5.36-0.853 4.94-1.71 9.88-2.59 14.8-0.253 1.44-0.503 2.87-0.75 4.31-0.327 1.9-0.667 3.8-1.01 5.7-0.275 1.57-0.275 1.57-0.556 3.17-0.21 0.765-0.419 1.53-0.635 2.32-2.38 1.19-3.83 1.12-6.49 1.12-0.945 0.00137-1.89 0.00275-2.86 0.00417-1.04-0.0036-2.08-0.00719-3.15-0.0109-1.09 1.46e-4 -2.19 2.92e-4 -3.31 4.43e-4 -3.63-6.99e-4 -7.25-0.00849-10.9-0.0163-2.51-0.00186-5.02-0.00329-7.52-0.00429-5.94-0.00343-11.9-0.0113-17.8-0.0213-7.42-0.0123-14.8-0.0176-22.3-0.0232-13.2-0.0107-26.5-0.0276-39.7-0.0488-1.11-4.76-0.602-8.66 0.285-13.4 0.225-1.26 0.225-1.26 0.455-2.56 0.504-2.82 1.02-5.64 1.54-8.45 0.362-2.01 0.723-4.02 1.08-6.03 0.775-4.32 1.56-8.63 2.34-12.9 1.25-6.86 2.49-13.7 3.72-20.6 1.49-8.26 2.97-16.5 4.47-24.8 3.46-19.1 6.87-38.3 10.3-57.4 0.976-5.5 1.95-11 2.93-16.5 0.243-1.37 0.243-1.37 0.491-2.76 0.327-1.84 0.654-3.68 0.982-5.52 0.817-4.59 1.63-9.19 2.45-13.8 0.33-1.86 0.659-3.71 0.989-5.57 0.165-0.928 0.33-1.86 0.5-2.81 2.79-15.7 5.58-31.4 8.36-47.1 0.514-2.89 1.03-5.79 1.54-8.68 6.32-35.6 6.32-35.6 9.37-52.6 0.207-1.15 0.413-2.31 0.626-3.5 0.402-2.24 0.803-4.49 1.21-6.73 3.77-21.1 7.48-42.1 11.2-63.2 6.47-36.9 13-73.8 19.7-111 1.61-8.97 3.21-17.9 4.8-26.9 0.853-4.8 1.71-9.6 2.56-14.4 0.381-2.14 0.762-4.28 1.14-6.42 0.504-2.85 1.01-5.7 1.52-8.55 0.216-1.23 0.216-1.23 0.436-2.49 1.22-6.77 1.61-6.7 8.5-6.73z"/>
<path fill="current" transform="translate(793 527)" d="m0 0c1.26 0.00138 1.26 0.00138 2.54 0.00279 0.961-0.00137 1.92-0.00275 2.91-0.00417 1.06 0.0036 2.12 0.00719 3.22 0.0109 1.67-2.19e-4 1.67-2.19e-4 3.37-4.43e-4 3.7 7e-4 7.39 0.00849 11.1 0.0163 2.55 0.00186 5.11 0.00329 7.66 0.00429 6.05 0.00344 12.1 0.0113 18.1 0.0213 6.89 0.0112 13.8 0.0167 20.7 0.0217 14.2 0.0105 28.3 0.0281 42.5 0.0503-1.46 10.9-3.29 21.7-5.2 32.5-0.318 1.8-0.635 3.6-0.953 5.4-0.676 3.84-1.35 7.67-2.03 11.5-1.08 6.08-2.15 12.2-3.22 18.2-0.181 1.02-0.361 2.05-0.548 3.11-0.367 2.08-0.734 4.16-1.1 6.25-0.556 3.15-1.11 6.31-1.67 9.46-2.39 13.5-4.76 27.1-7.13 40.6-0.308 1.76-0.616 3.53-0.925 5.29-1.16 6.63-2.32 13.3-3.47 19.9-3.49 20-7.05 40-10.7 60-4.29 23.8-8.52 47.6-12.7 71.3-0.615 3.46-1.23 6.93-1.84 10.4-5.2 29.3-10.4 58.6-15.5 87.9-3.91 22.3-7.86 44.7-11.9 67-0.362 2.01-0.724 4.02-1.09 6.04-0.659 3.66-1.32 7.33-1.98 11-0.194 1.08-0.388 2.16-0.588 3.27-0.179 0.985-0.358 1.97-0.542 2.99-0.154 0.852-0.308 1.7-0.467 2.58-0.414 2.11-0.928 4.21-1.45 6.3h-114c1.28-10.2 2.64-20.2 4.48-30.3 0.245-1.36 0.489-2.72 0.733-4.08 0.525-2.93 1.05-5.85 1.58-8.78 1.32-7.28 2.62-14.6 3.92-21.8 0.467-2.61 0.934-5.21 1.4-7.82 3.44-19.2 6.82-38.4 10.2-57.7 0.847-4.82 1.69-9.65 2.54-14.5 1.03-5.86 2.06-11.7 3.09-17.6 2.16-12.3 4.32-24.6 6.48-36.9 1.46-8.31 2.93-16.6 4.39-24.9 0.162-0.919 0.324-1.84 0.49-2.79 4.18-23.7 8.34-47.5 12.5-71.2 0.202-1.16 0.404-2.32 0.613-3.52 1.02-5.89 2.05-11.8 3.07-17.7 5.79-33.3 11.6-66.5 17.5-99.8 0.395-2.22 0.79-4.44 1.18-6.65 1.6-9 3.22-18 4.85-27 0.236-1.31 0.472-2.62 0.709-3.94 0.688-3.82 1.38-7.64 2.08-11.5 0.313-1.74 0.313-1.74 0.632-3.51 0.193-1.05 0.386-2.1 0.585-3.19 0.168-0.926 0.337-1.85 0.51-2.81 0.702-3.04 0.702-3.04 3.39-3.22z"/>
<path fill="current" transform="translate(820,365)" d="m0 0h114c-2.3 19.5-2.3 19.5-3.88 28.1-0.175 0.968-0.351 1.94-0.532 2.93-0.565 3.11-1.14 6.22-1.71 9.33-0.398 2.18-0.796 4.37-1.19 6.55-0.816 4.48-1.63 8.96-2.46 13.4-1.2 6.53-2.38 13.1-3.56 19.6-0.546 3.02-1.09 6.04-1.64 9.07-0.348 1.92-0.696 3.85-1.04 5.77-0.482 2.66-0.965 5.33-1.45 7.99-0.141 0.783-0.283 1.57-0.428 2.37-0.607 3.33-1.28 6.6-2.1 9.88h-116c1.13-10.1 1.13-10.1 1.78-13.7 0.223-1.22 0.223-1.22 0.45-2.47 0.16-0.861 0.32-1.72 0.485-2.61 0.171-0.933 0.342-1.87 0.518-2.83 0.561-3.06 1.13-6.11 1.69-9.17 0.395-2.14 0.79-4.28 1.18-6.42 0.827-4.48 1.66-8.95 2.49-13.4 1.06-5.72 2.11-11.4 3.16-17.2 0.812-4.42 1.63-8.83 2.45-13.2 0.39-2.11 0.779-4.22 1.16-6.32 0.542-2.95 1.09-5.91 1.64-8.86 0.156-0.861 0.312-1.72 0.473-2.61 0.231-1.22 0.231-1.22 0.467-2.47 0.193-1.04 0.193-1.04 0.39-2.11 0.98-3.93 2.37-7.75 3.65-11.6z"/>
<path fill="current" transform="translate(635 350)" d="m0 0c0.847 9.22e-4 1.69 0.00184 2.57 0.00279 0.969-0.00137 1.94-0.00275 2.94-0.00417 1.61 0.00539 1.61 0.00539 3.25 0.0109 1.68-2.19e-4 1.68-2.19e-4 3.4-4.43e-4 3.73 7e-4 7.46 0.00849 11.2 0.0163 2.58 0.00186 5.15 0.00329 7.73 0.00429 6.1 0.00344 12.2 0.0113 18.3 0.0213 6.95 0.0112 13.9 0.0167 20.8 0.0217 14.3 0.0105 28.6 0.0281 42.9 0.0503-0.637 4.01-1.28 8.02-1.92 12-0.179 1.13-0.359 2.26-0.544 3.42-1.26 7.92-2.64 15.8-4.17 23.7-0.508 2.66-1.02 5.32-1.52 7.98-0.138 0.728-0.276 1.46-0.419 2.21-1.38 7.29-2.69 14.6-4.01 21.9-0.337 1.87-0.337 1.87-0.682 3.77-0.915 5.06-1.83 10.1-2.74 15.2-0.642 3.58-1.29 7.15-1.93 10.7-0.292 1.64-0.292 1.64-0.59 3.31-0.181 0.999-0.362 2-0.548 3.03-0.157 0.876-0.315 1.75-0.477 2.65-0.46 2.11-0.46 2.11-1.46 4.11h-115c1.13-10.1 1.13-10.1 2-15 0.195-1.11 0.389-2.21 0.59-3.35 0.21-1.18 0.42-2.35 0.637-3.57 0.221-1.25 0.443-2.5 0.671-3.79 0.596-3.37 1.2-6.73 1.8-10.1 0.373-2.09 0.744-4.17 1.12-6.26 3.19-17.9 6.43-35.8 9.82-53.7 0.168-0.891 0.335-1.78 0.508-2.7 0.464-2.46 0.934-4.92 1.41-7.38 0.135-0.717 0.27-1.43 0.409-2.17 1.14-5.88 1.14-5.88 3.97-6.06z"/>
<path fill="current" transform="translate(459,350)" d="m0 0h115c-3.44 24.1-3.44 24.1-5.02 32.4-0.177 0.953-0.353 1.91-0.535 2.89-0.562 3.03-1.13 6.06-1.7 9.09-0.8 4.29-1.6 8.59-2.39 12.9-0.199 1.07-0.397 2.14-0.602 3.24-1.31 7.06-2.58 14.1-3.83 21.2-0.16 0.907-0.32 1.81-0.485 2.75-0.608 3.44-1.22 6.88-1.81 10.3-0.402 2.32-0.809 4.63-1.22 6.95-0.226 1.3-0.451 2.59-0.683 3.93-0.727 3.37-0.727 3.37-2.73 8.37h-115c4.61-27.7 4.61-27.7 6.84-39.7 0.251-1.36 0.503-2.73 0.754-4.09 0.519-2.81 1.04-5.62 1.56-8.44 0.652-3.52 1.3-7.04 1.95-10.6 0.516-2.8 1.03-5.6 1.55-8.41 0.351-1.9 0.701-3.8 1.05-5.7 2.3-12.4 4.82-24.8 7.29-37.1z"/>
</svg>
